<svg xmlns="http://www.w3.org/2000/svg" xmlns:xlink="http://www.w3.org/1999/xlink" enable-background="new 0 0 128 128" height="27" version="1.1" width="22" xml:space="preserve"><rect id="backgroundrect" width="100%" height="100%" x="0" y="0" fill="none" stroke="none" class=""/><g class="currentLayer"><title>Layer 1</title><g id="svg_1" class="" fill="#eb1aeb" fill-opacity="1"><g id="svg_2" fill="#eb1aeb" fill-opacity="1"><path d="M11.204301560526897,-7.993605777301127e-15 C5.01621673729135,-7.993605777301127e-15 1.7763568394002505e-15,4.203849564670028 1.7763568394002505e-15,9.389785311207751 s11.204301560526895,17.92595377594207 11.204301560526895,17.92595377594207 s11.204301560526895,-12.740018029404352 11.204301560526895,-17.92595377594207 S17.392386383762446,-7.993605777301127e-15 11.204301560526897,-7.993605777301127e-15 zM2.0371457382776192,9.389785311207751 C2.0371457382776192,5.1532849021601 6.149124410991009,1.7072336929468563 11.204301560526897,1.7072336929468563 s9.167155822249278,3.4460512092132456 9.167155822249278,7.682551618260887 c0,2.9509534382586553 -5.094901491432322,10.075026234714299 -9.167155822249278,14.989085015650229 C7.132047229709961,19.464811545922036 2.0371457382776192,12.340738749466414 2.0371457382776192,9.389785311207751 zM11.204301560526897,5.121701078840584 c-2.8130436213441072,0 -5.092864345694044,1.910607906619159 -5.092864345694044,4.268084232367159 s2.279820724349938,4.268084232367159 5.092864345694044,4.268084232367159 s5.092864345694044,-1.910607906619159 5.092864345694044,-4.268084232367159 S14.017345181871015,5.121701078840584 11.204301560526897,5.121701078840584 zM11.204301560526897,11.950635850628043 c-1.6849741687728748,0 -3.055718607416426,-1.1487548711416222 -3.055718607416426,-2.5608505394202963 s1.3707444386435519,-2.5608505394202963 3.055718607416426,-2.5608505394202963 s3.055718607416426,1.1487548711416222 3.055718607416426,2.5608505394202963 S12.889275729299774,11.950635850628043 11.204301560526897,11.950635850628043 z" fill="#eb1aeb" id="svg_3" fill-opacity="1"/></g></g></g></svg>